<mxfile host="app.diagrams.net" modified="2024-01-21T15:42:47.224Z" agent="Mozilla/5.0 (Macintosh; Intel Mac OS X 10.15; rv:121.0) Gecko/20100101 Firefox/121.0" etag="x_xnTNjjEy-z2xS977Bk" version="22.1.21" type="github">
  <diagram name="第 1 页" id="2ucvEa-JhtHt-EV53l8c">
    <mxGraphModel dx="1154" dy="549" grid="1" gridSize="10" guides="1" tooltips="1" connect="1" arrows="1" fold="1" page="1" pageScale="1" pageWidth="827" pageHeight="1169" math="0" shadow="0">
      <root>
        <mxCell id="0" />
        <mxCell id="1" parent="0" />
        <mxCell id="AjaMtJrKMgAzX6g4DrkN-2" value="请求" style="rounded=1;whiteSpace=wrap;html=1;" parent="1" vertex="1">
          <mxGeometry x="60" y="90" width="120" height="60" as="geometry" />
        </mxCell>
        <mxCell id="AjaMtJrKMgAzX6g4DrkN-3" value="" style="endArrow=classic;html=1;rounded=0;exitX=1;exitY=0.5;exitDx=0;exitDy=0;" parent="1" source="AjaMtJrKMgAzX6g4DrkN-2" edge="1">
          <mxGeometry width="50" height="50" relative="1" as="geometry">
            <mxPoint x="390" y="290" as="sourcePoint" />
            <mxPoint x="240" y="120" as="targetPoint" />
          </mxGeometry>
        </mxCell>
        <mxCell id="AjaMtJrKMgAzX6g4DrkN-5" value="apisix路由消费" style="ellipse;whiteSpace=wrap;html=1;" parent="1" vertex="1">
          <mxGeometry x="240" y="80" width="120" height="80" as="geometry" />
        </mxCell>
        <mxCell id="AjaMtJrKMgAzX6g4DrkN-7" value="" style="endArrow=classic;html=1;rounded=0;exitX=1;exitY=0.5;exitDx=0;exitDy=0;" parent="1" edge="1">
          <mxGeometry width="50" height="50" relative="1" as="geometry">
            <mxPoint x="360" y="119.5" as="sourcePoint" />
            <mxPoint x="420" y="119.5" as="targetPoint" />
          </mxGeometry>
        </mxCell>
        <mxCell id="AjaMtJrKMgAzX6g4DrkN-10" value="sign-auth 插件" style="ellipse;whiteSpace=wrap;html=1;" parent="1" vertex="1">
          <mxGeometry x="420" y="80" width="120" height="80" as="geometry" />
        </mxCell>
        <mxCell id="rGx54RhZWm9z0RT8K02q-1" value="" style="endArrow=classic;html=1;rounded=0;exitX=1;exitY=0.5;exitDx=0;exitDy=0;" edge="1" parent="1">
          <mxGeometry width="50" height="50" relative="1" as="geometry">
            <mxPoint x="540" y="119.5" as="sourcePoint" />
            <mxPoint x="600" y="119.5" as="targetPoint" />
          </mxGeometry>
        </mxCell>
        <mxCell id="rGx54RhZWm9z0RT8K02q-2" value="server" style="rounded=1;whiteSpace=wrap;html=1;" vertex="1" parent="1">
          <mxGeometry x="600" y="90" width="120" height="60" as="geometry" />
        </mxCell>
        <mxCell id="rGx54RhZWm9z0RT8K02q-3" value="" style="endArrow=classic;html=1;rounded=0;exitX=1;exitY=0.5;exitDx=0;exitDy=0;" edge="1" parent="1">
          <mxGeometry width="50" height="50" relative="1" as="geometry">
            <mxPoint x="720" y="119.5" as="sourcePoint" />
            <mxPoint x="780" y="119.5" as="targetPoint" />
          </mxGeometry>
        </mxCell>
        <mxCell id="rGx54RhZWm9z0RT8K02q-5" value="ak-extract 插件" style="ellipse;whiteSpace=wrap;html=1;" vertex="1" parent="1">
          <mxGeometry x="420" y="190" width="120" height="80" as="geometry" />
        </mxCell>
        <mxCell id="rGx54RhZWm9z0RT8K02q-6" value="" style="endArrow=none;html=1;rounded=0;" edge="1" parent="1">
          <mxGeometry width="50" height="50" relative="1" as="geometry">
            <mxPoint x="380" y="120" as="sourcePoint" />
            <mxPoint x="380" y="230" as="targetPoint" />
          </mxGeometry>
        </mxCell>
        <mxCell id="rGx54RhZWm9z0RT8K02q-7" value="" style="endArrow=classic;html=1;rounded=0;" edge="1" parent="1">
          <mxGeometry width="50" height="50" relative="1" as="geometry">
            <mxPoint x="380" y="230" as="sourcePoint" />
            <mxPoint x="420" y="230" as="targetPoint" />
          </mxGeometry>
        </mxCell>
        <mxCell id="rGx54RhZWm9z0RT8K02q-8" value="" style="endArrow=classic;html=1;rounded=0;exitX=1;exitY=0.5;exitDx=0;exitDy=0;" edge="1" parent="1">
          <mxGeometry width="50" height="50" relative="1" as="geometry">
            <mxPoint x="540" y="229.5" as="sourcePoint" />
            <mxPoint x="600" y="229.5" as="targetPoint" />
          </mxGeometry>
        </mxCell>
        <mxCell id="rGx54RhZWm9z0RT8K02q-9" value="上报" style="text;html=1;align=center;verticalAlign=middle;resizable=0;points=[];autosize=1;strokeColor=none;fillColor=none;" vertex="1" parent="1">
          <mxGeometry x="540" y="200" width="50" height="30" as="geometry" />
        </mxCell>
        <mxCell id="rGx54RhZWm9z0RT8K02q-10" value="异步" style="text;html=1;align=center;verticalAlign=middle;resizable=0;points=[];autosize=1;strokeColor=none;fillColor=none;" vertex="1" parent="1">
          <mxGeometry x="340" y="170" width="50" height="30" as="geometry" />
        </mxCell>
        <mxCell id="rGx54RhZWm9z0RT8K02q-11" value="ak-query-server" style="rounded=1;whiteSpace=wrap;html=1;" vertex="1" parent="1">
          <mxGeometry x="600" y="200" width="120" height="60" as="geometry" />
        </mxCell>
        <mxCell id="rGx54RhZWm9z0RT8K02q-13" value="prometheus metrics " style="ellipse;whiteSpace=wrap;html=1;" vertex="1" parent="1">
          <mxGeometry x="800" y="165" width="120" height="65" as="geometry" />
        </mxCell>
        <mxCell id="rGx54RhZWm9z0RT8K02q-15" value="" style="endArrow=classic;html=1;rounded=0;exitX=1;exitY=0.5;exitDx=0;exitDy=0;entryX=0;entryY=0.5;entryDx=0;entryDy=0;" edge="1" parent="1" target="rGx54RhZWm9z0RT8K02q-13">
          <mxGeometry width="50" height="50" relative="1" as="geometry">
            <mxPoint x="720" y="230" as="sourcePoint" />
            <mxPoint x="780" y="230" as="targetPoint" />
          </mxGeometry>
        </mxCell>
        <mxCell id="rGx54RhZWm9z0RT8K02q-18" value="query api" style="ellipse;whiteSpace=wrap;html=1;" vertex="1" parent="1">
          <mxGeometry x="800" y="250" width="120" height="65" as="geometry" />
        </mxCell>
        <mxCell id="rGx54RhZWm9z0RT8K02q-21" value="" style="endArrow=classic;html=1;rounded=0;exitX=1;exitY=0.5;exitDx=0;exitDy=0;entryX=0;entryY=0.5;entryDx=0;entryDy=0;" edge="1" parent="1" source="rGx54RhZWm9z0RT8K02q-11" target="rGx54RhZWm9z0RT8K02q-18">
          <mxGeometry width="50" height="50" relative="1" as="geometry">
            <mxPoint x="550" y="280" as="sourcePoint" />
            <mxPoint x="600" y="230" as="targetPoint" />
          </mxGeometry>
        </mxCell>
        <mxCell id="rGx54RhZWm9z0RT8K02q-22" value="DB" style="shape=cylinder3;whiteSpace=wrap;html=1;boundedLbl=1;backgroundOutline=1;size=15;" vertex="1" parent="1">
          <mxGeometry x="620" y="320" width="80" height="60" as="geometry" />
        </mxCell>
        <mxCell id="rGx54RhZWm9z0RT8K02q-24" value="" style="shape=flexArrow;endArrow=classic;html=1;rounded=0;" edge="1" parent="1">
          <mxGeometry width="50" height="50" relative="1" as="geometry">
            <mxPoint x="659.5" y="265" as="sourcePoint" />
            <mxPoint x="659.5" y="315" as="targetPoint" />
          </mxGeometry>
        </mxCell>
      </root>
    </mxGraphModel>
  </diagram>
</mxfile>
